<svg xmlns="http://www.w3.org/2000/svg" width="40" height="40" viewBox="0 0 40 40" aria-hidden="true">
  <path fill="#fff" d="M20 7c-6.1 0-11 4.9-11 11v3.1l-2.3 5c-.9 2 .5 4.3 2.7 4.3h21.2c2.2 0 3.6-2.3 2.7-4.3l-2.3-5V18c0-6.1-4.9-11-11-11z"/>
  <path fill="#fff" opacity="0.55" d="M20 10.2c-4.3 0-7.8 3.5-7.8 7.8v4.1l-.7 1.5h17l-.7-1.5V18c0-4.3-3.5-7.8-7.8-7.8z"/>
  <path fill="#fff" d="M14.8 31.2c.3 2.7 2.5 4.8 5.2 4.8s4.9-2.1 5.2-4.8H14.8z"/>
  <path fill="#fff" opacity="0.75" d="M6.2 16.8c.6-4.2 3.4-7.7 7.3-9.3l.6 1.5c-3.3 1.4-5.7 4.3-6.2 7.9l-1.7-.1zm27.6 0-1.7.1c-.5-3.6-2.9-6.5-6.2-7.9l.6-1.5c3.9 1.6 6.7 5.1 7.3 9.3z"/>
</svg>
